<svg width="32" height="32" viewBox="0 0 32 32" fill="none" xmlns="http://www.w3.org/2000/svg">
  <defs>
    <linearGradient id="iconGradient" x1="0%" y1="0%" x2="100%" y2="100%">
      <stop offset="0%" style="stop-color:#14b8a6;stop-opacity:1" />
      <stop offset="100%" style="stop-color:#0891b2;stop-opacity:1" />
    </linearGradient>
  </defs>
  <rect width="32" height="32" rx="6" fill="url(#iconGradient)"/>
  <!-- SparklesIcon from Heroicons - stroke version, exact same as header -->
  <g transform="translate(4, 4)">
    <path stroke-linecap="round" stroke-linejoin="round" d="M9.813 15.904 9 18.75l-.813-2.846a4.5 4.5 0 0 0-3.09-3.09L2.25 12l2.846-.813a4.5 4.5 0 0 0 3.09-3.09L9 5.25l.813 2.846a4.5 4.5 0 0 0 3.09 3.09L15.75 12l-2.846.813a4.5 4.5 0 0 0-3.09 3.09ZM18.259 8.715 18 9.75l-.259-1.035a3.375 3.375 0 0 0-2.455-2.456L14.25 6l1.036-.259a3.375 3.375 0 0 0 2.455-2.456L18 2.25l.259 1.035a3.375 3.375 0 0 0 2.456 2.456L21.75 6l-1.035.259a3.375 3.375 0 0 0-2.456 2.456ZM16.894 20.567 16.5 21.75l-.394-1.183a2.25 2.25 0 0 0-1.423-1.423L13.5 18.75l1.183-.394a2.25 2.25 0 0 0 1.423-1.423l.394-1.183.394 1.183a2.25 2.25 0 0 0 1.423 1.423l1.183.394-1.183.394a2.25 2.25 0 0 0-1.423 1.423Z" 
        fill="none" 
        stroke="white" 
        stroke-width="1.5"/>
  </g>
</svg>
